<?xml version="1.0" encoding="UTF-8" standalone="no"?>
<!-- Created with Inkscape (http://www.inkscape.org/) -->
<svg width="48.000164" height="48.000805" viewBox="0 0 12.700044 12.700213" version="1.1" id="svg1" xml:space="preserve" inkscape:version="1.3.2 (091e20ef0f, 2023-11-25)" sodipodi:docname="zen browser papirus.svg" xmlns:inkscape="http://www.inkscape.org/namespaces/inkscape" xmlns:sodipodi="http://sodipodi.sourceforge.net/DTD/sodipodi-0.dtd" xmlns="http://www.w3.org/2000/svg" xmlns:svg="http://www.w3.org/2000/svg"><sodipodi:namedview id="namedview1" pagecolor="#ffffff" bordercolor="#000000" borderopacity="0.25" inkscape:showpageshadow="2" inkscape:pageopacity="0.0" inkscape:pagecheckerboard="0" inkscape:deskcolor="#d1d1d1" inkscape:document-units="px" inkscape:zoom="8.0000001" inkscape:cx="14" inkscape:cy="27.875" inkscape:window-width="1872" inkscape:window-height="1043" inkscape:window-x="0" inkscape:window-y="0" inkscape:window-maximized="1" inkscape:current-layer="layer1" showguides="true"/><defs id="defs1"><inkscape:path-effect effect="fillet_chamfer" id="path-effect5" is_visible="true" lpeversion="1" nodesatellites_param="F,0,0,1,0,0,0,1 @ F,0,0,1,0,0,0,1 @ F,0,0,1,0,0,0,1 @ F,0,0,1,0,0,0,1 @ F,0,0,1,0,0.74692729,0,1 | F,0,0,1,0,0,0,1 @ F,0,0,1,0,0,0,1 @ F,0,0,1,0,0,0,1 @ F,0,0,1,0,0,0,1 @ F,0,0,1,0,0,0,1 @ F,0,0,1,0,0,0,1 @ F,0,0,1,0,0,0,1 @ F,0,0,1,0,0,0,1 @ F,0,0,1,0,0,0,1 @ F,0,0,1,0,0,0,1 @ F,0,0,1,0,0,0,1 @ F,0,0,1,0,0,0,1 | F,0,0,1,0,0,0,1 @ F,0,0,1,0,0,0,1 @ F,0,0,1,0,0.72384154,0,1 @ F,0,0,1,0,0,0,1 @ F,0,0,1,0,0,0,1 @ F,0,0,1,0,0,0,1" radius="0" unit="px" method="auto" mode="F" chamfer_steps="1" flexible="false" use_knot_distance="true" apply_no_radius="true" apply_with_radius="true" only_selected="false" hide_knots="false"/><inkscape:path-effect effect="fillet_chamfer" id="path-effect3" is_visible="true" lpeversion="1" nodesatellites_param="F,0,0,1,0,0,0,1 @ F,0,0,1,0,0,0,1 @ F,0,0,1,0,0,0,1 @ F,0,0,1,0,0,0,1 @ F,0,0,1,0,0.74692729,0,1 | F,0,0,1,0,0,0,1 @ F,0,0,1,0,0,0,1 @ F,0,0,1,0,0,0,1 @ F,0,0,1,0,0,0,1 @ F,0,0,1,0,0,0,1 @ F,0,0,1,0,0,0,1 @ F,0,0,1,0,0,0,1 @ F,0,0,1,0,0,0,1 @ F,0,0,1,0,0,0,1 @ F,0,0,1,0,0,0,1 @ F,0,0,1,0,0,0,1 @ F,0,0,1,0,0,0,1 | F,0,0,1,0,0,0,1 @ F,0,0,1,0,0,0,1 @ F,0,0,1,0,0.72384154,0,1 @ F,0,0,1,0,0,0,1 @ F,0,0,1,0,0,0,1 @ F,0,0,1,0,0,0,1" radius="0" unit="px" method="auto" mode="F" chamfer_steps="1" flexible="false" use_knot_distance="true" apply_no_radius="true" apply_with_radius="true" only_selected="false" hide_knots="false"/><inkscape:path-effect effect="fillet_chamfer" id="path-effect1" is_visible="true" lpeversion="1" nodesatellites_param="F,0,0,1,0,0,0,1 @ F,0,0,1,0,0,0,1 @ F,0,0,1,0,0,0,1 @ F,0,0,1,0,0,0,1 @ F,0,0,1,0,0.74692729,0,1 | F,0,0,1,0,0,0,1 @ F,0,0,1,0,0,0,1 @ F,0,0,1,0,0,0,1 @ F,0,0,1,0,0,0,1 @ F,0,0,1,0,0,0,1 @ F,0,0,1,0,0,0,1 @ F,0,0,1,0,0,0,1 @ F,0,0,1,0,0,0,1 @ F,0,0,1,0,0,0,1 @ F,0,0,1,0,0,0,1 @ F,0,0,1,0,0,0,1 @ F,0,0,1,0,0,0,1 | F,0,0,1,0,0,0,1 @ F,0,0,1,0,0,0,1 @ F,0,0,1,0,0.72384154,0,1 @ F,0,0,1,0,0,0,1 @ F,0,0,1,0,0,0,1 @ F,0,0,1,0,0,0,1" radius="0" unit="px" method="auto" mode="F" chamfer_steps="1" flexible="false" use_knot_distance="true" apply_no_radius="true" apply_with_radius="true" only_selected="false" hide_knots="false"/></defs><g inkscape:label="Camada 1" inkscape:groupmode="layer" id="layer1" transform="translate(-75.155742,-118.73582)"><path id="path7" style="" d="m 81.505776,118.93578 c -1.836505,0 -3.673012,0.0196 -3.919188,0.0589 -1.138716,0.18148 -2.100824,1.10647 -2.342106,2.2518 -0.117332,0.55696 -0.118764,7.57737 -0.0016,8.13312 0.23154,1.09881 1.113013,1.99753 2.190005,2.23296 h 1.09e-4 c 0.529564,0.11562 7.578219,0.11786 8.119118,0.002 1.101,-0.23468 1.982073,-1.12327 2.216439,-2.2355 0.117216,-0.55576 0.115897,-7.57616 -0.0015,-8.13312 -0.241283,-1.14534 -1.20339,-2.07033 -2.342105,-2.2518 -0.246177,-0.0392 -2.082684,-0.0589 -3.919188,-0.0589 z" inkscape:label="back shadow"/><path id="path9" style="" d="m 81.505776,118.73633 c -1.836505,0 -3.673012,0.0196 -3.919188,0.0589 -1.138716,0.18147 -2.100824,1.10645 -2.342106,2.2518 -0.117332,0.55694 -0.118764,7.57737 -0.0016,8.13312 0.23154,1.0988 1.113013,1.99752 2.190005,2.23296 h 1.09e-4 c 0.529564,0.11562 7.578219,0.11786 8.119118,0.002 1.101,-0.23469 1.982073,-1.12329 2.216439,-2.2355 0.117216,-0.55577 0.115897,-7.57619 -0.0015,-8.13312 -0.241283,-1.14535 -1.20339,-2.07034 -2.342105,-2.25181 -0.246177,-0.0392 -2.082684,-0.0589 -3.919188,-0.0589 z" inkscape:label="back color"/><path id="path2" style="" d="m 81.505731,118.73604 v 3.9e-4 c -1.836503,0 -3.672961,0.0195 -3.919137,0.0588 -1.138716,0.18147 -2.100822,1.10627 -2.342104,2.25162 -0.05979,0.2838 -0.08912,2.24424 -0.08837,4.17404 0.0013,-1.8623 0.03067,-3.70074 0.08837,-3.9746 0.241282,-1.14533 1.203388,-2.07014 2.342104,-2.25162 0.246176,-0.0393 2.082634,-0.0588 3.919137,-0.0588 v -3.8e-4 c 1.836501,0 3.672962,0.0196 3.919138,0.0588 1.138714,0.18147 2.10082,1.10667 2.342103,2.252 0.05768,0.27369 0.08703,2.10964 0.08837,3.9707 7.46e-4,-1.92864 -0.02858,-3.88653 -0.08837,-4.17014 -0.241283,-1.14535 -1.203389,-2.07054 -2.342103,-2.25201 -0.246176,-0.0392 -2.082637,-0.0588 -3.919138,-0.0588 z" inkscape:label="back light"/><path id="path3" style="" d="m 78.669739,128.96305 c -0.552237,-3e-5 -0.999906,-0.4477 -0.999939,-0.99994 3.3e-5,-0.55224 0.447702,-0.99991 0.999939,-0.99994 h 2.76779 c 0.498683,0.2892 0.920946,0.87518 1.212416,1.3515 0.215161,0.35161 0.03555,0.64826 -0.376962,0.64827 z m 5.799646,-0.008 c -0.449213,0.0558 -0.879924,-0.19702 -1.050065,-0.6165 0,0 -0.619416,-1.5495 -2.525427,-2.49442 -1.261672,-0.62549 -2.059326,-1.41052 -2.533179,-2.05827 -0.473853,-0.64776 -0.654224,-1.24437 -0.654224,-1.24437 -0.148583,-0.53294 0.163809,-1.08524 0.697116,-1.23249 0.532429,-0.14721 1.083367,0.16517 1.230415,0.69764 0,0 0.03827,0.18487 0.340031,0.59738 0.301757,0.4125 0.837163,0.96582 1.808676,1.44745 2.560359,1.26932 3.490225,3.53519 3.490226,3.53519 0.207724,0.51187 -0.03894,1.0952 -0.550871,1.30276 -0.081,0.0328 -0.165961,0.0549 -0.252698,0.0656 z m -2.71663,-5.68182 c -0.661512,-0.38168 -1.023583,-0.77294 -1.23765,-1.06557 -0.07271,-0.0994 -0.135685,-0.19833 -0.191201,-0.29382 -0.200216,-0.34436 -0.0077,-0.64042 0.392079,-0.64042 h 3.629898 c 0.552237,3e-5 0.999906,0.4477 0.999939,0.99994 -3.3e-5,0.55224 -0.447702,0.99991 -0.999939,0.99994 z" transform="matrix(1,0,0,-1,2.6265978e-7,250.50134)" sodipodi:nodetypes="cccccccccccccccccccccccccc" inkscape:label="Z shadow" inkscape:original-d="m 78.669739,128.96305 c -0.552237,-3e-5 -0.999906,-0.4477 -0.999939,-0.99994 3.3e-5,-0.55224 0.447702,-0.99991 0.999939,-0.99994 h 2.76779 c 0.795482,0.46132 1.39651,1.67781 1.582381,1.99975 z m 5.799646,-0.008 c -0.449213,0.0558 -0.879924,-0.19702 -1.050065,-0.6165 0,0 -0.619416,-1.5495 -2.525427,-2.49442 -1.261672,-0.62549 -2.059326,-1.41052 -2.533179,-2.05827 -0.473853,-0.64776 -0.654224,-1.24437 -0.654224,-1.24437 -0.148583,-0.53294 0.163809,-1.08524 0.697116,-1.23249 0.532429,-0.14721 1.083367,0.16517 1.230415,0.69764 0,0 0.03827,0.18487 0.340031,0.59738 0.301757,0.4125 0.837163,0.96582 1.808676,1.44745 2.560359,1.26932 3.490225,3.53519 3.490226,3.53519 0.207724,0.51187 -0.03894,1.0952 -0.550871,1.30276 -0.081,0.0328 -0.165961,0.0549 -0.252698,0.0656 z m -2.71663,-5.68182 c -0.661512,-0.38168 -1.023583,-0.77294 -1.23765,-1.06557 -0.269489,-0.36841 -0.405323,-0.73048 -0.522964,-0.93424 h 4.35374 c 0.552237,3e-5 0.999906,0.4477 0.999939,0.99994 -3.3e-5,0.55224 -0.447702,0.99991 -0.999939,0.99994 z" inkscape:path-effect="#path-effect5"/><path id="path6" style="" d="m 78.669739,128.96305 c -0.552237,-3e-5 -0.999906,-0.4477 -0.999939,-0.99994 3.3e-5,-0.55224 0.447702,-0.99991 0.999939,-0.99994 h 2.76779 c 0.498683,0.2892 0.920946,0.87518 1.212416,1.3515 0.215161,0.35161 0.03555,0.64826 -0.376962,0.64827 z m 5.799646,-0.008 c -0.449213,0.0558 -0.879924,-0.19702 -1.050065,-0.6165 0,0 -0.619416,-1.5495 -2.525427,-2.49442 -1.261672,-0.62549 -2.059326,-1.41052 -2.533179,-2.05827 -0.473853,-0.64776 -0.654224,-1.24437 -0.654224,-1.24437 -0.148583,-0.53294 0.163809,-1.08524 0.697116,-1.23249 0.532429,-0.14721 1.083367,0.16517 1.230415,0.69764 0,0 0.03827,0.18487 0.340031,0.59738 0.301757,0.4125 0.837163,0.96582 1.808676,1.44745 2.560359,1.26932 3.490225,3.53519 3.490226,3.53519 0.207724,0.51187 -0.03894,1.0952 -0.550871,1.30276 -0.081,0.0328 -0.165961,0.0549 -0.252698,0.0656 z m -2.71663,-5.68182 c -0.661512,-0.38168 -1.023583,-0.77294 -1.23765,-1.06557 -0.07271,-0.0994 -0.135685,-0.19833 -0.191201,-0.29382 -0.200216,-0.34436 -0.0077,-0.64042 0.392079,-0.64042 h 3.629898 c 0.552237,3e-5 0.999906,0.4477 0.999939,0.99994 -3.3e-5,0.55224 -0.447702,0.99991 -0.999939,0.99994 z" transform="matrix(1,0,0,-1,2.626598e-7,250.2367)" sodipodi:nodetypes="cccccccccccccccccccccccccc" inkscape:label="Z" inkscape:original-d="m 78.669739,128.96305 c -0.552237,-3e-5 -0.999906,-0.4477 -0.999939,-0.99994 3.3e-5,-0.55224 0.447702,-0.99991 0.999939,-0.99994 h 2.76779 c 0.795482,0.46132 1.39651,1.67781 1.582381,1.99975 z m 5.799646,-0.008 c -0.449213,0.0558 -0.879924,-0.19702 -1.050065,-0.6165 0,0 -0.619416,-1.5495 -2.525427,-2.49442 -1.261672,-0.62549 -2.059326,-1.41052 -2.533179,-2.05827 -0.473853,-0.64776 -0.654224,-1.24437 -0.654224,-1.24437 -0.148583,-0.53294 0.163809,-1.08524 0.697116,-1.23249 0.532429,-0.14721 1.083367,0.16517 1.230415,0.69764 0,0 0.03827,0.18487 0.340031,0.59738 0.301757,0.4125 0.837163,0.96582 1.808676,1.44745 2.560359,1.26932 3.490225,3.53519 3.490226,3.53519 0.207724,0.51187 -0.03894,1.0952 -0.550871,1.30276 -0.081,0.0328 -0.165961,0.0549 -0.252698,0.0656 z m -2.71663,-5.68182 c -0.661512,-0.38168 -1.023583,-0.77294 -1.23765,-1.06557 -0.269489,-0.36841 -0.405323,-0.73048 -0.522964,-0.93424 h 4.35374 c 0.552237,3e-5 0.999906,0.4477 0.999939,0.99994 -3.3e-5,0.55224 -0.447702,0.99991 -0.999939,0.99994 z" inkscape:path-effect="#path-effect1"/><path id="path4" style="" inkscape:label="Z light" d="M 78.669739 128.96305 C 78.117504 128.96302 77.669833 128.51535 77.6698 127.96311 C 77.669803 127.91816 77.67387 127.8742 77.679619 127.83082 C 77.744498 128.32039 78.162451 128.69844 78.669739 128.69847 L 82.726856 128.69847 C 82.680329 128.85748 82.518471 128.96304 82.273137 128.96305 L 78.669739 128.96305 z M 84.30247 128.96202 C 84.259489 128.96015 84.217181 128.9543 84.175346 128.94703 C 84.167626 128.94569 84.159764 128.94493 84.152092 128.94341 C 84.112846 128.93564 84.074613 128.92524 84.036854 128.91292 C 84.028187 128.9101 84.019591 128.9072 84.011015 128.90414 C 83.973305 128.89069 83.936148 128.87491 83.900428 128.85711 C 83.894164 128.85399 83.88802 128.85055 83.881824 128.8473 C 83.84401 128.82745 83.807265 128.80617 83.77227 128.78167 C 83.772151 128.78158 83.771872 128.78175 83.771754 128.78167 C 83.735584 128.75631 83.701552 128.72798 83.668917 128.69795 C 83.665851 128.69513 83.662649 128.69254 83.659616 128.68968 C 83.62908 128.66087 83.600701 128.62989 83.573833 128.59718 C 83.568954 128.59125 83.564112 128.58515 83.559363 128.57909 C 83.533435 128.54599 83.50934 128.51083 83.487533 128.47419 C 83.484963 128.46987 83.482291 128.46564 83.479782 128.46127 C 83.457269 128.42212 83.436667 128.38157 83.41932 128.3388 C 83.41932 128.3388 83.409491 128.3148 83.388831 128.27059 C 83.388702 128.27031 83.388961 128.27035 83.388831 128.27007 C 83.368169 128.22586 83.336543 128.16181 83.292713 128.08197 C 83.292618 128.08179 83.292809 128.08162 83.292713 128.08145 C 83.270797 128.04154 83.24545 127.99795 83.217265 127.95071 C 83.217182 127.95057 83.217349 127.95033 83.217265 127.95019 C 83.189051 127.90291 83.157511 127.85235 83.122698 127.79878 C 83.122612 127.79865 83.122783 127.7984 83.122698 127.79826 C 83.018031 127.63724 82.882507 127.45044 82.712387 127.25153 C 82.712296 127.25142 82.712477 127.25112 82.712387 127.25101 C 82.655709 127.18475 82.595075 127.11732 82.530486 127.04896 C 82.530394 127.04886 82.530577 127.04854 82.530486 127.04844 C 82.465876 126.98006 82.397145 126.91117 82.324297 126.84173 C 82.178346 126.70259 82.015908 126.56229 81.834921 126.42522 C 81.744484 126.35673 81.649341 126.28905 81.549667 126.22265 C 81.350319 126.08985 81.132144 125.96249 80.893893 125.84438 C 80.65733 125.7271 80.437296 125.60402 80.232435 125.47747 C 79.959286 125.30875 79.713052 125.13365 79.492428 124.95658 C 79.32696 124.82378 79.175754 124.68953 79.037675 124.5566 C 78.945715 124.46807 78.859272 124.3802 78.778776 124.29305 C 78.778696 124.29296 78.778857 124.29262 78.778776 124.29253 C 78.617765 124.11818 78.47911 123.94795 78.360714 123.78611 C 78.301483 123.70514 78.246664 123.62515 78.196383 123.54684 C 78.196309 123.54673 78.196457 123.54644 78.196383 123.54633 C 78.1462 123.46816 78.10011 123.39182 78.058407 123.31843 C 78.058338 123.31831 78.058476 123.31804 78.058407 123.31792 C 77.974973 123.17106 77.907948 123.03599 77.855835 122.92104 C 77.855777 122.92091 77.855894 122.92065 77.855835 122.92052 C 77.751666 122.69068 77.70649 122.54174 77.70649 122.54174 C 77.697016 122.50775 77.689511 122.47346 77.683753 122.43942 C 77.677994 122.40538 77.674053 122.37148 77.671867 122.33761 C 77.669681 122.30375 77.669075 122.27032 77.670317 122.23685 C 77.671559 122.20337 77.674576 122.16997 77.679102 122.13711 C 77.685206 122.18372 77.693501 122.23004 77.70649 122.27664 C 77.70649 122.27664 77.886863 122.87325 78.360714 123.52101 C 78.834567 124.16874 79.632223 124.95379 80.893893 125.57928 C 82.7999 126.5242 83.41932 128.0737 83.41932 128.0737 C 83.589461 128.49318 84.020174 128.746 84.469385 128.6902 C 84.556122 128.6795 84.641083 128.65737 84.722083 128.62457 C 85.066552 128.48491 85.289875 128.17502 85.336516 127.83134 C 85.340194 127.85891 85.34291 127.8865 85.344267 127.91402 C 85.349696 128.02408 85.336605 128.1331 85.30706 128.237 C 85.300672 128.25946 85.293282 128.28172 85.285356 128.30366 C 85.283211 128.30956 85.280893 128.31537 85.278638 128.32123 C 85.270606 128.34223 85.261703 128.36283 85.252283 128.38324 C 85.251502 128.38493 85.251007 128.38673 85.250216 128.38841 C 85.249073 128.39085 85.247762 128.39321 85.246599 128.39564 C 85.236297 128.41719 85.22535 128.43843 85.213526 128.45921 C 85.213336 128.45954 85.2132 128.45991 85.213009 128.46024 C 85.212204 128.46165 85.211237 128.46297 85.210425 128.46437 C 85.197746 128.48635 85.184465 128.50797 85.170118 128.52897 C 85.154852 128.55131 85.138642 128.57298 85.121542 128.59408 C 85.116025 128.60089 85.109676 128.60705 85.103972 128.61372 C 85.08889 128.6313 85.073821 128.64883 85.057463 128.66539 C 85.051323 128.67163 85.04466 128.6774 85.038343 128.68348 C 85.024421 128.69685 85.010216 128.71015 84.995451 128.72275 C 84.984282 128.73231 84.97299 128.74157 84.961345 128.75066 C 84.948186 128.76092 84.934789 128.77099 84.921037 128.78063 C 84.910946 128.78772 84.900956 128.79508 84.890548 128.80182 C 84.870349 128.81489 84.849374 128.8268 84.82802 128.83851 C 84.823629 128.84092 84.81954 128.84391 84.815101 128.84626 C 84.813756 128.84697 84.812316 128.84762 84.810967 128.84833 C 84.782341 128.8633 84.752639 128.87728 84.722083 128.88967 C 84.641083 128.92247 84.556122 128.94408 84.469385 128.95478 L 84.469385 128.9553 C 84.413234 128.96227 84.357571 128.96441 84.30247 128.96202 z M 81.752755 123.27348 C 81.504688 123.13035 81.298789 122.98571 81.126954 122.84559 C 81.069675 122.79889 81.016231 122.75263 80.96624 122.7071 C 80.916249 122.66158 80.869492 122.61667 80.826197 122.57274 C 80.739725 122.485 80.665728 122.40093 80.602438 122.32211 C 80.60236 122.32201 80.602516 122.32169 80.602438 122.3216 C 80.570864 122.28227 80.541786 122.24438 80.515105 122.20791 C 80.478751 122.15821 80.445074 122.10817 80.413302 122.05908 C 80.384122 122.01399 80.356911 121.96973 80.331137 121.92575 C 80.322843 121.9116 80.316887 121.89893 80.308916 121.88493 C 80.242017 121.75673 80.229869 121.63664 80.262407 121.53715 C 80.331819 121.6658 80.412559 121.80261 80.515105 121.94281 C 80.72917 122.23544 81.091245 122.62671 81.752755 123.00837 L 84.345879 123.00889 C 84.853045 123.00886 85.270965 122.63064 85.335999 122.14124 C 85.341748 122.18462 85.345815 122.22859 85.345818 122.27354 C 85.345816 122.30788 85.344032 122.34189 85.34065 122.37534 C 85.340633 122.37551 85.340667 122.37569 85.34065 122.37586 C 85.326988 122.51031 85.286471 122.63665 85.224895 122.74999 C 85.200735 122.79446 85.172599 122.83653 85.142213 122.8766 C 85.133869 122.88759 85.126189 122.89904 85.117408 122.90967 C 85.076652 122.95906 85.0314 123.00431 84.982016 123.04507 C 84.932631 123.08582 84.879008 123.12176 84.822335 123.15255 C 84.765663 123.18334 84.705638 123.20904 84.643018 123.22852 C 84.580398 123.248 84.515426 123.26148 84.448198 123.26831 C 84.414584 123.27172 84.380393 123.27347 84.345879 123.27348 L 81.752755 123.27348 z " transform="matrix(1,0,0,-1,2.626598e-7,250.2367)"/></g></svg>